<?xml version="1.0" standalone="no"?>
<!DOCTYPE svg PUBLIC "-//W3C//DTD SVG 20010904//EN"
 "http://www.w3.org/TR/2001/REC-SVG-20010904/DTD/svg10.dtd">
<svg version="1.0" xmlns="http://www.w3.org/2000/svg"
 width="593.000000pt" height="593.000000pt" viewBox="0 0 593.000000 593.000000"
 preserveAspectRatio="xMidYMid meet">
<metadata>
Created by potrace 1.14, written by Peter Selinger 2001-2017
</metadata>
<g transform="translate(0.000000,593.000000) scale(0.100000,-0.100000)"
fill="#000000" stroke="none">
<path d="M2769 5926 c-2 -2 -38 -7 -79 -10 -90 -7 -133 -12 -180 -21 -19 -4
-44 -8 -55 -10 -290 -41 -755 -213 -1003 -371 -29 -19 -54 -34 -57 -34 -5 0
-123 -79 -142 -95 -6 -5 -28 -21 -48 -35 -21 -14 -46 -33 -56 -42 -10 -10 -21
-18 -24 -18 -3 0 -13 -8 -24 -17 -10 -10 -41 -36 -67 -58 -65 -53 -269 -257
-319 -319 -22 -27 -44 -54 -50 -60 -5 -6 -27 -34 -47 -61 -21 -28 -41 -55 -46
-60 -5 -6 -17 -24 -28 -40 -10 -17 -22 -32 -25 -35 -7 -5 -95 -146 -131 -209
-33 -57 -123 -239 -156 -317 -28 -64 -107 -288 -117 -331 -2 -10 -11 -43 -20
-73 -8 -30 -18 -71 -21 -90 -3 -19 -8 -38 -10 -41 -2 -4 -6 -24 -9 -45 -4 -22
-8 -46 -10 -54 -2 -8 -7 -37 -11 -65 -3 -27 -8 -59 -10 -70 -25 -133 -25 -678
1 -758 2 -7 6 -36 9 -65 7 -57 49 -266 66 -322 6 -19 13 -43 15 -53 2 -11 25
-80 51 -155 41 -119 63 -172 149 -357 39 -82 199 -349 225 -375 3 -3 21 -27
39 -55 19 -27 38 -52 41 -55 3 -3 24 -27 45 -55 65 -81 104 -123 227 -245 145
-144 158 -154 399 -333 8 -7 24 -17 35 -24 461 -287 844 -423 1349 -479 136
-16 645 -7 675 11 3 2 33 7 65 10 33 4 87 13 120 21 33 7 74 15 91 18 63 11
282 79 399 123 110 42 343 149 355 163 3 3 30 19 60 34 50 26 263 165 307 200
176 141 373 324 448 416 11 14 44 54 74 89 214 259 412 624 516 951 15 47 28
93 30 103 2 9 6 20 8 25 10 16 64 269 73 342 2 19 6 46 9 60 20 103 27 531 12
665 -5 39 -11 90 -13 115 -5 38 -33 198 -48 267 -44 207 -204 633 -264 706 -9
9 -12 17 -9 17 12 0 -179 311 -195 318 -5 2 -8 8 -8 13 0 5 -6 17 -14 26 -8
10 -51 63 -95 119 -103 131 -309 337 -441 442 -58 46 -113 90 -123 98 -9 8
-21 14 -26 14 -5 0 -14 7 -21 15 -21 25 -238 155 -370 220 -196 99 -437 187
-620 230 -53 12 -170 37 -199 41 -18 3 -41 7 -50 9 -9 2 -44 6 -76 10 -33 4
-73 9 -90 12 -36 5 -481 13 -486 9z"/>
</g>
</svg>
